<?xml version="1.0" encoding="UTF-8"?>
<svg xmlns="http://www.w3.org/2000/svg" width="320" height="130" viewBox="0 0 320 130" fill="none">
  <g clip-path="url(#clip0_703_1292)">
    <path d="M21.9207 49.7905H30.3093L42.0092 80.0337H33.6206L31.1923 72.9696H20.1547L17.7264 80.0337H10L21.9207 49.7905ZM29.4263 67.0092L25.8942 56.6338L22.3622 67.0092H29.4263Z" fill="#C22032"></path>
    <path d="M46.2036 49.7904H57.2413C60.3961 49.6765 63.5003 50.6077 66.0714 52.4395C67.1394 53.3602 67.9757 54.5194 68.5126 55.8234C69.0495 57.1273 69.272 58.5392 69.162 59.9451C69.136 61.5523 68.7593 63.1344 68.0582 64.5809C67.2355 66.0662 66.0115 67.2902 64.5262 68.1129L72.0318 80.0336H63.2016L57.9035 70.3205H53.93V80.0336H46.2036V49.7904ZM53.7092 64.3601H55.9168C59.4488 64.3601 61.2148 63.0356 61.2148 60.1658C61.2304 59.5856 61.1201 59.0088 60.8914 58.4753C60.6628 57.9418 60.3213 57.4642 59.8903 57.0753C58.6805 56.3771 57.3133 55.9974 55.9168 55.9715H53.7092V64.3601Z" fill="#C22032"></path>
    <path d="M75.7847 49.7905H83.9525L92.5619 66.5677L100.951 49.7905H109.118V80.0337H101.392V61.7112L95.4317 73.6318H89.2506L83.2903 61.7112V80.0337H76.0054V49.7905H75.7847Z" fill="#C22032"></path>
    <path d="M124.792 80.696C123.463 80.7326 122.134 80.6587 120.818 80.4752C119.54 80.311 118.283 80.0151 117.065 79.5922C116.019 79.3807 115.036 78.9271 114.196 78.2677L114.858 71.6451C116.22 72.5283 117.709 73.1983 119.273 73.6319C120.93 74.0688 122.636 74.2913 124.35 74.2941C125.558 74.2885 126.755 74.0641 127.882 73.6319C128.228 73.3773 128.508 73.0445 128.699 72.6608C128.891 72.2771 128.99 71.8533 128.986 71.4243C128.976 70.9484 128.822 70.4868 128.545 70.0998C128.085 69.6596 127.565 69.2878 126.999 68.9961C125.895 68.5546 125.012 68.3338 123.909 67.8923C121.252 67.3194 118.807 66.0202 116.845 64.1395C115.351 62.5217 114.558 60.3793 114.637 58.1791C114.632 56.8837 114.906 55.6024 115.439 54.4218C115.972 53.2412 116.753 52.1889 117.728 51.3358C120.156 49.5751 123.123 48.7164 126.116 48.9075C127.831 48.8958 129.539 49.1186 131.194 49.5698C132.748 49.9271 134.237 50.5228 135.609 51.3358L134.505 57.5169C133.279 56.7768 131.935 56.254 130.531 55.9716C129.176 55.5368 127.761 55.3134 126.337 55.3093C123.467 55.3093 122.143 56.1924 122.143 57.9584C122.205 58.637 122.52 59.2674 123.026 59.7244C124.161 60.3314 125.342 60.8481 126.558 61.2697C129.381 61.9284 132.021 63.2107 134.284 65.0225C135.842 66.6155 136.713 68.755 136.712 70.9828C136.776 72.3407 136.508 73.6936 135.931 74.9245C135.354 76.1553 134.485 77.2271 133.401 78.0469C130.879 79.8076 127.868 80.734 124.792 80.696Z" fill="#C22032"></path>
    <path d="M148.412 56.4131H139.141V49.7905H165.852V56.1923H156.58V80.0337H148.633V56.4131H148.412Z" fill="#C22032"></path>
    <path d="M170.267 49.7904H181.305C184.459 49.6765 187.564 50.6077 190.135 52.4395C191.203 53.3602 192.039 54.5194 192.576 55.8234C193.113 57.1273 193.335 58.5392 193.225 59.9451C193.199 61.5523 192.823 63.1344 192.121 64.5809C191.299 66.0662 190.075 67.2902 188.589 68.1129L196.095 80.0336H187.265L181.967 70.3205H177.993V80.0336H170.267V49.7904ZM177.993 64.3601H180.201C183.733 64.3601 185.499 63.0356 185.499 60.1658C185.514 59.5856 185.404 59.0088 185.175 58.4753C184.947 57.9418 184.605 57.4642 184.174 57.0753C182.977 56.3489 181.602 55.967 180.201 55.9715H177.993V64.3601Z" fill="#C22032"></path>
    <path d="M213.755 80.696C210.843 80.6945 207.971 80.0143 205.367 78.7092C202.982 77.3518 200.943 75.4634 199.406 73.1903C197.885 70.6622 197.119 67.7513 197.199 64.8017C197.202 62.0301 197.884 59.3014 199.186 56.8546C200.508 54.4296 202.5 52.4369 204.925 51.115C207.543 49.6145 210.518 48.8516 213.535 48.9075C216.447 48.9089 219.319 49.5892 221.923 50.8942C224.355 52.1857 226.409 54.0876 227.884 56.4131C228.996 58.17 229.743 60.1335 230.079 62.1859C230.415 64.2384 230.333 66.3375 229.838 68.3575C229.344 70.3775 228.446 72.2769 227.2 73.9418C225.954 75.6068 224.384 77.003 222.585 78.0469C222.365 78.0469 222.365 78.2677 222.144 78.2677C219.639 79.8668 216.727 80.7099 213.755 80.696ZM213.755 73.6319C215.222 73.6058 216.66 73.2272 217.95 72.5281C219.217 71.8382 220.225 70.7529 220.819 69.4375C221.599 68.0202 221.98 66.4183 221.923 64.8017C222.006 63.2527 221.621 61.7147 220.819 60.3866C220.225 59.0713 219.217 57.986 217.95 57.2961C217.07 56.716 216.083 56.3183 215.047 56.1263C214.011 55.9343 212.947 55.9521 211.918 56.1785C210.889 56.4048 209.916 56.8353 209.056 57.4444C208.196 58.0534 207.467 58.8287 206.912 59.7244C206.912 59.9451 206.691 59.9451 206.691 60.1659C206.036 61.5846 205.697 63.1287 205.697 64.6913C205.697 66.254 206.036 67.7981 206.691 69.2168C207.285 70.5322 208.293 71.6174 209.561 72.3073C210.803 73.1424 212.259 73.6023 213.755 73.6319Z" fill="#C22032"></path>
    <path d="M235.168 49.7905H242.012L255.919 68.113V49.7905H263.204V80.0337H256.361L242.453 61.7112V80.0337H235.168V49.7905Z" fill="#C22032"></path>
    <path d="M285.059 80.4751C282.031 80.4421 279.036 79.8432 276.229 78.7091C273.761 77.5716 271.687 75.7278 270.268 73.411C268.771 70.9534 268.006 68.1202 268.061 65.2431C268.034 62.2999 268.796 59.4032 270.268 56.8545C271.756 54.4051 273.896 52.4179 276.449 51.1149C279.401 49.6787 282.662 48.9961 285.942 49.1281C287.801 49.1305 289.653 49.3528 291.461 49.7904C293.155 50.1455 294.79 50.7402 296.317 51.5564L294.993 58.179C292.085 56.8462 288.92 56.168 285.721 56.1922C284.439 56.085 283.15 56.2455 281.933 56.6635C280.717 57.0816 279.601 57.748 278.657 58.6205C277.79 59.4417 277.107 60.4363 276.65 61.5393C276.194 62.6423 275.975 63.8291 276.008 65.0224C275.954 66.1987 276.142 67.3734 276.56 68.4744C276.978 69.5753 277.616 70.5792 278.436 71.4242C280.356 72.9985 282.801 73.7872 285.279 73.6318C286.469 73.6075 287.653 73.4595 288.811 73.1903V68.3337H284.176V62.3733H296.538V78.0468C292.939 79.6992 289.018 80.5287 285.059 80.4751Z" fill="#C22032"></path>
    <path d="M300.6 53.8743C300.556 53.2431 300.643 52.6096 300.854 52.0132C301.066 51.4169 301.398 50.8704 301.829 50.4078C302.261 49.9451 302.783 49.5762 303.363 49.324C303.944 49.0718 304.57 48.9417 305.203 48.9417C305.835 48.9417 306.461 49.0718 307.042 49.324C307.622 49.5762 308.144 49.9451 308.576 50.4078C309.007 50.8704 309.339 51.4169 309.551 52.0132C309.762 52.6096 309.849 53.2431 309.805 53.8743C309.849 54.5056 309.762 55.1391 309.551 55.7354C309.339 56.3318 309.007 56.8783 308.576 57.3409C308.144 57.8036 307.622 58.1724 307.042 58.4247C306.461 58.6769 305.835 58.807 305.203 58.807C304.57 58.807 303.944 58.6769 303.363 58.4247C302.783 58.1724 302.261 57.8036 301.829 57.3409C301.398 56.8783 301.066 56.3318 300.854 55.7354C300.643 55.1391 300.556 54.5056 300.6 53.8743ZM309.275 53.8743C309.317 53.3143 309.242 52.7517 309.056 52.2218C308.87 51.6919 308.577 51.2061 308.194 50.7946C307.812 50.3832 307.349 50.055 306.834 49.8306C306.32 49.6062 305.764 49.4904 305.203 49.4904C304.641 49.4904 304.085 49.6062 303.571 49.8306C303.056 50.055 302.593 50.3832 302.21 50.7946C301.828 51.2061 301.535 51.6919 301.349 52.2218C301.163 52.7517 301.088 53.3143 301.13 53.8743C301.088 54.4344 301.163 54.997 301.349 55.5269C301.535 56.0568 301.828 56.5426 302.21 56.9541C302.593 57.3655 303.056 57.6937 303.571 57.9181C304.085 58.1425 304.641 58.2583 305.203 58.2583C305.764 58.2583 306.32 58.1425 306.834 57.9181C307.349 57.6937 307.812 57.3655 308.194 56.9541C308.577 56.5426 308.87 56.0568 309.056 55.5269C309.242 54.997 309.317 54.4344 309.275 53.8743ZM303.293 51.3798H305.501C306.626 51.3798 307.443 51.8876 307.443 52.9693C307.457 53.2986 307.36 53.623 307.168 53.891C306.976 54.1589 306.7 54.3551 306.384 54.4483L307.598 56.1702H306.185L305.169 54.6691H304.419V56.1702H303.249L303.293 51.3798ZM305.501 53.7198C306.03 53.7198 306.317 53.4549 306.317 53.0576C306.317 52.6602 305.986 52.3953 305.501 52.3953H304.485V53.7198H305.501Z" fill="#C22032"></path>
  </g>
  <defs>
    <clipPath id="clip0_703_1292">
      <rect width="300.07" height="59.6034" fill="white" transform="translate(10 35)"></rect>
    </clipPath>
  </defs>
</svg>
